<?xml version="1.0" encoding="UTF-8"?>
<svg id="Layer_2" data-name="Layer 2" xmlns="http://www.w3.org/2000/svg" viewBox="0 0 150.56 46.84">
  <defs>
    <style>
      .cls-1 {
        fill: #d50037;
      }

      .cls-1, .cls-2 {
        stroke-width: 0px;
      }

      .cls-2 {
        fill: #fff;
      }
    </style>
  </defs>
  <g id="Layer_1-2" data-name="Layer 1">
    <g>
      <g>
        <path class="cls-2" d="m97.96,44.24c-.91,0-1.64-.35-2.2-1.04v.92h-1.49v-9.08h1.49v3.14c.54-.69,1.28-1.04,2.2-1.05.96,0,1.77.33,2.43,1.02.66.69.99,1.53.99,2.54s-.32,1.81-.97,2.51c-.65.7-1.47,1.04-2.45,1.04Zm-1.67-2.01c.43.43.94.65,1.54.65s1.11-.22,1.53-.65c.42-.43.64-.95.64-1.54s-.21-1.12-.64-1.56c-.42-.43-.93-.65-1.53-.65s-1.11.22-1.54.66-.64.95-.64,1.55.21,1.11.64,1.54Z"/>
        <path class="cls-2" d="m103.27,46.84l1.12-2.76-2.87-6.83h1.57l2.04,5.16,1.93-5.16h1.57l-3.83,9.6h-1.53Z"/>
        <path class="cls-2" d="m113.11,44.12v-9.08h4.09c.85,0,1.52.22,2.02.67.5.45.75,1.01.75,1.71,0,.45-.11.86-.33,1.22-.22.36-.52.64-.89.84.52.19.91.48,1.18.86s.4.83.4,1.33c0,.73-.26,1.32-.78,1.77-.52.45-1.22.68-2.11.68h-4.33Zm1.49-5.19h2.52c.42,0,.75-.12,1-.36.26-.24.38-.54.38-.91s-.12-.66-.37-.89-.57-.34-.98-.34h-2.56v2.5Zm0,3.79h2.75c.42,0,.77-.12,1.02-.35.26-.23.39-.54.39-.92s-.13-.71-.4-.93-.62-.33-1.05-.33h-2.71v2.53Z"/>
        <path class="cls-2" d="m124.66,44.22c-.99,0-1.82-.35-2.5-1.04-.68-.7-1.02-1.53-1.02-2.51s.35-1.82,1.04-2.51c.69-.69,1.52-1.03,2.49-1.03.86,0,1.61.28,2.26.84s1.05,1.26,1.2,2.09c.09.41.09.8.01,1.17h-5.53c.09.51.32.91.7,1.21.38.3.83.45,1.35.45.8,0,1.43-.28,1.91-.84l1.32.35c-.28.55-.72,1-1.32,1.33-.61.33-1.24.5-1.91.5Zm-2.05-4.15h4.06c-.09-.46-.31-.84-.68-1.15-.37-.31-.81-.47-1.34-.47s-.98.16-1.35.47-.6.7-.69,1.15Z"/>
        <path class="cls-2" d="m130.04,46.84l1.12-2.76-2.87-6.83h1.57l2.04,5.16,1.93-5.16h1.57l-3.83,9.6h-1.53Z"/>
        <path class="cls-2" d="m139,44.22c-.98,0-1.81-.35-2.5-1.05s-1.03-1.53-1.03-2.5.34-1.81,1.03-2.5,1.52-1.04,2.5-1.04,1.81.35,2.5,1.04c.69.7,1.03,1.53,1.03,2.5s-.35,1.81-1.04,2.51c-.69.7-1.52,1.04-2.49,1.04Zm-1.52-2.02c.42.43.92.64,1.52.64s1.1-.21,1.52-.64c.42-.43.62-.94.62-1.54s-.21-1.11-.62-1.54c-.42-.43-.92-.64-1.52-.64s-1.1.21-1.52.64c-.42.43-.62.94-.62,1.54s.21,1.11.62,1.54Z"/>
        <path class="cls-2" d="m143.55,44.12v-6.87h1.49v.91c.53-.68,1.24-1.02,2.14-1.02.79,0,1.46.25,2.03.76s.85,1.18.85,2.02v4.22h-1.49v-3.81c0-.55-.16-.99-.49-1.31s-.72-.48-1.19-.48c-.54,0-.99.2-1.34.59-.35.39-.52.88-.52,1.47v3.54h-1.49Z"/>
      </g>
      <g>
        <path class="cls-2" d="m41.94,28.73V7.57h9.83c2,0,3.6.54,4.81,1.62,1.21,1.08,1.81,2.42,1.81,4.04,0,.97-.23,1.87-.68,2.71s-1.06,1.51-1.83,2.01c1.15.5,2.01,1.21,2.57,2.13.56.92.85,1.91.85,2.98,0,1.63-.61,2.99-1.83,4.07-1.22,1.08-2.87,1.62-4.94,1.62h-10.58Zm4.38-12.37h5.29c.73,0,1.32-.23,1.77-.7.45-.46.68-1.02.68-1.66s-.23-1.2-.68-1.66c-.45-.46-1.04-.7-1.77-.7h-5.29v4.72Zm0,8.28h5.9c.73,0,1.32-.22,1.77-.67.45-.44.68-.99.68-1.63s-.23-1.19-.68-1.65-1.04-.68-1.77-.68h-5.9v4.63Z"/>
        <path class="cls-2" d="m67.19,28.98c-.65,0-1.28-.07-1.92-.21s-1.28-.39-1.95-.74-1.2-.89-1.6-1.6c-.4-.72-.6-1.57-.6-2.56,0-1.71.57-2.96,1.71-3.75,1.14-.79,2.68-1.18,4.61-1.18h4.57v-.76c0-1.35-1.04-2.03-3.11-2.03-1.77,0-2.85.55-3.23,1.66l-4.17.06c0-1.61.71-2.92,2.12-3.93,1.41-1.01,3.14-1.51,5.2-1.51s3.72.49,5.17,1.47,2.18,2.23,2.18,3.76v11.07h-4.14v-1.54c-.42.48-1.06.9-1.92,1.25s-1.82.53-2.89.53Zm.36-3.57c1.09,0,2.1-.33,3.04-1,.94-.67,1.41-1.46,1.41-2.39h-3.75c-.93,0-1.64.18-2.13.53-.49.35-.7.83-.62,1.44.12.95.81,1.42,2.06,1.42Z"/>
        <path class="cls-2" d="m89.68,28.58c-2.58.75-4.76.65-6.53-.27-1.77-.93-2.66-2.57-2.66-4.93l.03-6.89h-2.72v-3.78h2.72l.03-3.54h4.32l-.03,3.54h4.63v3.78h-4.63l-.03,6.86c0,.42.18.78.53,1.06s.89.45,1.6.5c.72.05,1.63-.14,2.74-.56v4.23Z"/>
        <path class="cls-2" d="m99.58,28.98c-2.3,0-4.25-.81-5.85-2.43-1.6-1.62-2.4-3.56-2.4-5.82s.81-4.28,2.43-5.88c1.62-1.6,3.56-2.4,5.82-2.4,1.96,0,3.69.62,5.2,1.87s2.47,2.82,2.87,4.72c.26,1.15.27,2.26.03,3.33h-12.03c.24.89.71,1.57,1.42,2.04.71.47,1.54.71,2.51.71,1.53,0,2.79-.45,3.78-1.36l3.81,1.09c-.63,1.25-1.66,2.25-3.11,3.01-1.45.76-2.94,1.13-4.48,1.13Zm-3.93-9.95h7.77c-.24-.77-.71-1.41-1.39-1.94-.69-.52-1.51-.79-2.48-.79s-1.8.26-2.49.79c-.7.52-1.16,1.17-1.41,1.94Z"/>
        <path class="cls-2" d="m110.14,28.73V7.57h4.38v21.17h-4.38Z"/>
        <path class="cls-2" d="m125.04,28.98c-2.3,0-4.25-.81-5.85-2.43-1.6-1.62-2.4-3.56-2.4-5.82s.81-4.28,2.43-5.88c1.62-1.6,3.56-2.4,5.82-2.4,1.71,0,3.26.48,4.63,1.45,1.37.97,2.36,2.24,2.96,3.81l-3.99,1.15c-.32-.75-.8-1.35-1.44-1.8-.64-.45-1.36-.68-2.16-.68-1.17,0-2.16.43-2.96,1.3-.81.87-1.21,1.89-1.21,3.05s.4,2.18,1.21,3.04c.81.86,1.79,1.28,2.96,1.28.83,0,1.55-.23,2.18-.68s1.1-1.04,1.42-1.77l3.99,1.15c-.61,1.55-1.59,2.81-2.95,3.78-1.36.97-2.91,1.45-4.64,1.45Z"/>
        <path class="cls-2" d="m142.31,28.98c-2.26,0-4.2-.82-5.82-2.45-1.62-1.63-2.43-3.58-2.43-5.84s.81-4.2,2.42-5.82c1.61-1.62,3.56-2.43,5.84-2.43s4.2.81,5.82,2.43,2.43,3.56,2.43,5.82-.81,4.23-2.42,5.85c-1.61,1.62-3.56,2.43-5.84,2.43Zm-2.96-5.26c.81.85,1.79,1.27,2.96,1.27s2.16-.42,2.96-1.27c.81-.85,1.21-1.85,1.21-3.02s-.4-2.17-1.21-3.01c-.81-.84-1.79-1.25-2.96-1.25s-2.16.42-2.96,1.25c-.81.84-1.21,1.84-1.21,3.01s.4,2.18,1.21,3.02Z"/>
      </g>
      <g>
        <path class="cls-1" d="m33.63,25.22c0,4.64-3.76,8.41-8.41,8.41s-8.41-3.76-8.41-8.41,3.76-8.41,8.41-8.41,8.41,3.76,8.41,8.41"/>
        <path class="cls-1" d="m33.63,8.41c0,4.64-3.76,8.41-8.41,8.41s-8.41-3.76-8.41-8.41S20.58,0,25.22,0s8.41,3.76,8.41,8.41"/>
        <path class="cls-1" d="m16.82,8.41C16.82,3.76,13.05,0,8.41,0S0,3.76,0,8.41v16.82c0,4.64,3.76,8.41,8.41,8.41s8.41-3.76,8.41-8.41V8.41Z"/>
      </g>
    </g>
  </g>
</svg>